<svg width="89" height="89" fill="none" xmlns="http://www.w3.org/2000/svg"><circle cx="44.042" cy="44.796" r="44" fill="#F7F7F7"/><path d="M54.05 65.823H26.014a4.206 4.206 0 01-4.247-4.248V28.017a4.206 4.206 0 014.247-4.247H54.05a4.206 4.206 0 014.248 4.247v33.558a4.206 4.206 0 01-4.248 4.248z" fill="#5FBF24"/><path d="M34.34 56.802h-5.862c-.85 0-1.529-.68-1.529-1.53 0-.849.68-1.529 1.53-1.529h5.776c.85 0 1.53.68 1.53 1.53.084.85-.595 1.529-1.445 1.529zM58.298 62.462c6.334 0 11.469-5.135 11.469-11.47 0-6.334-5.135-11.469-11.47-11.469-6.333 0-11.468 5.135-11.468 11.47 0 6.334 5.135 11.468 11.469 11.468z" fill="#C5F5A6"/><path d="M62.932 46.653v8.32a3.982 3.982 0 01-3.978 3.978 4.837 4.837 0 01-3.45-1.428l-4.68-4.677a.663.663 0 01.465-1.13c.224 0 .444.055.644.153l2.513 1.255a.363.363 0 00.526-.326v-7.593c0-.4.322-.722.722-.722.4 0 .723.322.723.722v4.704a.363.363 0 00.726 0v-6.152a.724.724 0 011.448 0v6.149a.363.363 0 00.725 0v-4.701c0-.4.323-.722.723-.722.4 0 .722.322.722.722v4.704a.363.363 0 00.726 0v-3.256c0-.4.322-.722.722-.722.4-.004.723.322.723.722z" fill="#fff"/><path d="M26.949 34.22c0-1.067.348-1.928 1.043-2.583.695-.656 1.627-.984 2.797-.984 1.185 0 2.121.328 2.808.984.688.647 1.032 1.528 1.032 2.642v.854c0 1.066-.344 1.923-1.032 2.571-.687.648-1.615.972-2.785.972-1.161 0-2.097-.32-2.808-.96-.703-.648-1.055-1.533-1.055-2.654v-.842zm2.572.913c0 .41.114.746.343 1.007.23.253.546.38.948.38.83 0 1.245-.53 1.245-1.589v-.711c0-.41-.11-.747-.332-1.007-.221-.269-.533-.403-.936-.403-.387 0-.696.13-.925.39-.229.254-.343.601-.343 1.044v.889zm5.629 8.793c0-1.074.348-1.936 1.043-2.583.703-.648 1.635-.972 2.797-.972 1.177 0 2.113.32 2.808.96.696.64 1.043 1.532 1.043 2.678v.83c0 1.074-.343 1.935-1.03 2.583-.688.648-1.62.972-2.798.972-1.161 0-2.097-.32-2.808-.96-.703-.648-1.055-1.533-1.055-2.655v-.853zm2.56.913c0 .371.126.699.38.983.252.277.56.415.923.415.767 0 1.182-.363 1.245-1.09l.012-1.22c0-.42-.115-.755-.344-1.008-.23-.26-.541-.391-.936-.391-.38 0-.684.122-.913.367-.229.237-.351.561-.367.972v.972zm-6.14 2.026l-1.86-.936 8.426-13.487 1.861.937-8.426 13.486z" fill="#C5F5A6"/></svg>