<svg width="89" height="89" fill="none" xmlns="http://www.w3.org/2000/svg"><circle cx="44.635" cy="44.699" r="44" fill="#F7F7F7"/><path d="M53.3 62.172H24.5a4.321 4.321 0 01-4.363-4.363V23.336a4.321 4.321 0 014.363-4.364h28.8a4.321 4.321 0 014.364 4.364v34.473a4.321 4.321 0 01-4.364 4.363z" fill="#F579A0"/><g clip-path="url(#clip0)" fill="#fff"><path opacity=".2" d="M42.514 45.69h7.226v-9.18c0-.752-.615-1.368-1.367-1.368h-5.86V45.69z"/><path opacity=".5" d="M35.288 45.69h7.226V30.942c0-.752-.615-1.367-1.367-1.367h-5.86v16.113z"/><path opacity=".8" d="M28.06 45.69h7.227V26.196c0-.752-.615-1.367-1.367-1.367h-4.492c-.752 0-1.367.615-1.367 1.367V45.69z"/></g><path d="M57.664 70.426c6.334 0 11.469-5.135 11.469-11.469s-5.135-11.469-11.47-11.469c-6.333 0-11.468 5.135-11.468 11.47 0 6.334 5.135 11.468 11.469 11.468z" fill="#FFBED3"/><path d="M56.303 65.993c.126.037.2-.142.082-.201-1.088-.596-2.57-1.825-2.272-4.053.491-3.59 4.41-3.374 5.206-3.292v1.818c0 .387.462.596.753.327l3.873-3.575a.442.442 0 000-.656l-3.873-3.575c-.29-.26-.753-.06-.753.328v1.326c-1.028-.03-3.545-.015-5.541 1.608-.902.73-1.587 1.766-1.758 2.913-.745 4.82 2.48 6.48 4.283 7.032z" fill="#fff"/><defs><clipPath id="clip0"><path fill="#fff" transform="matrix(-1 0 0 1 49.74 24.83)" d="M0 0h21.679v20.859H0z"/></clipPath></defs></svg>