<svg width="89" height="89" fill="none" xmlns="http://www.w3.org/2000/svg"><circle cx="44.812" cy="44.843" r="44" fill="#F7F7F7"/><path d="M54.82 65.87H26.783a4.207 4.207 0 01-4.248-4.249V28.064a4.207 4.207 0 014.248-4.248h28.035a4.207 4.207 0 014.248 4.248V61.62a4.207 4.207 0 01-4.248 4.248z" fill="#FB9650"/><path d="M35.11 56.848h-5.862c-.85 0-1.53-.68-1.53-1.529 0-.85.68-1.53 1.53-1.53h5.777c.85 0 1.529.68 1.529 1.53.085.85-.595 1.53-1.444 1.53zM59.067 62.508c6.334 0 11.47-5.135 11.47-11.47 0-6.333-5.136-11.468-11.47-11.468-6.334 0-11.469 5.135-11.469 11.469s5.135 11.469 11.47 11.469z" fill="#FFD48A"/><path d="M60.765 58.907c-.127.037-.201-.142-.082-.202 1.087-.596 2.57-1.825 2.272-4.052-.492-3.59-4.41-3.374-5.207-3.292v1.817a.448.448 0 01-.752.328l-3.874-3.575a.442.442 0 010-.656l3.873-3.576c.291-.26.753-.06.753.328v1.326c1.028-.03 3.546-.015 5.542 1.61.901.73 1.586 1.764 1.758 2.912.745 4.82-2.48 6.48-4.283 7.032z" fill="#fff"/><path d="M27.718 34.267c0-1.067.348-1.928 1.043-2.584.696-.656 1.628-.984 2.797-.984 1.185 0 2.122.328 2.809.984.687.648 1.031 1.529 1.031 2.643v.853c0 1.067-.344 1.924-1.031 2.572-.687.648-1.616.971-2.785.971-1.161 0-2.098-.32-2.809-.96-.703-.647-1.055-1.532-1.055-2.654v-.841zm2.572.912c0 .41.115.747.344 1.007.229.253.545.38.948.38.83 0 1.244-.53 1.244-1.589v-.71c0-.411-.11-.747-.331-1.008-.222-.269-.534-.403-.937-.403-.387 0-.695.13-.924.391-.23.253-.344.6-.344 1.043v.889zm5.63 8.794c0-1.075.347-1.936 1.042-2.584.704-.648 1.636-.972 2.797-.972 1.178 0 2.114.32 2.809.96.695.64 1.043 1.533 1.043 2.678v.83c0 1.075-.344 1.936-1.031 2.584-.688.648-1.62.971-2.797.971-1.161 0-2.098-.32-2.809-.96-.703-.647-1.054-1.532-1.054-2.654v-.853zm2.56.912c0 .371.126.7.379.984.252.276.56.414.924.414.766 0 1.181-.363 1.244-1.09l.012-1.22c0-.42-.114-.755-.343-1.008-.23-.26-.542-.39-.937-.39-.379 0-.683.122-.912.366-.23.237-.352.561-.368.972v.972zm-6.14 2.027l-1.86-.937 8.426-13.486 1.86.936-8.425 13.487z" fill="#FFD48A"/></svg>