<svg width="89" height="89" fill="none" xmlns="http://www.w3.org/2000/svg"><circle cx="44.336" cy="44.273" r="44" fill="#F7F7F7"/><path d="M54.344 65.3H26.31a4.207 4.207 0 01-4.248-4.249V27.494a4.207 4.207 0 014.248-4.248h28.035a4.207 4.207 0 014.248 4.248V61.05a4.207 4.207 0 01-4.248 4.248z" fill="#FB9650"/><path d="M51.626 36.074H28.773c-.85 0-1.53-.68-1.53-1.529 0-.85.68-1.53 1.53-1.53H51.54c.85 0 1.529.68 1.529 1.53.085.85-.595 1.53-1.444 1.53zM34.635 45.844h-5.862c-.85 0-1.53-.68-1.53-1.529 0-.85.68-1.53 1.53-1.53h5.777c.85 0 1.529.68 1.529 1.53.085.85-.595 1.53-1.444 1.53zM58.592 61.938c6.334 0 11.47-5.135 11.47-11.47 0-6.333-5.136-11.468-11.47-11.468-6.334 0-11.469 5.135-11.469 11.469s5.135 11.469 11.47 11.469z" fill="#FFD48A"/><path d="M55.65 45.844c2.263 0 4.074.234 4.074 2.923 0 2.688-2.524 2.744-4.787 2.744m0 0c-.453 0 .452 0 0 0zm0 0l5.21 5.874m-5.402-11.54h7.694m-7.694 2.504h7.694" stroke="#fff" stroke-width="1.786" stroke-miterlimit="10" stroke-linecap="round" stroke-linejoin="round"/><path d="M55.322 51.502h-.437" stroke="#fff" stroke-width="1.786" stroke-linecap="round"/></svg>