<svg width="89" height="89" fill="none" xmlns="http://www.w3.org/2000/svg"><circle cx="44.427" cy="44.523" r="44" fill="#F7F7F7"/><path d="M56.012 65.723h-28.8a4.321 4.321 0 01-4.364-4.363V26.887a4.321 4.321 0 014.364-4.364h28.8a4.321 4.321 0 014.364 4.364V61.36a4.321 4.321 0 01-4.364 4.363z" fill="#F579A0"/><path d="M59.066 61.796c6.507 0 11.782-5.275 11.782-11.782s-5.275-11.782-11.782-11.782c-6.506 0-11.781 5.275-11.781 11.782s5.275 11.782 11.782 11.782z" fill="#FFBED3"/><path d="M64.008 45.675v8.32a3.982 3.982 0 01-3.978 3.977 4.837 4.837 0 01-3.45-1.427l-4.68-4.677a.663.663 0 01.465-1.13c.224 0 .444.055.644.153l2.513 1.255a.363.363 0 00.526-.326v-7.593c0-.4.322-.723.722-.723.4 0 .723.323.723.723v4.704a.363.363 0 00.725 0v-6.152a.724.724 0 011.449 0v6.148a.363.363 0 00.725 0v-4.7c0-.4.323-.723.723-.723.4 0 .722.323.722.723v4.704a.363.363 0 00.726 0v-3.256c0-.4.322-.722.722-.722.4-.004.723.322.723.722z" fill="#fff"/><path d="M31.761 31.202c2.534 0 4.56.262 4.56 3.272s-2.825 3.073-5.358 3.073m0 0c-.507 0 .506 0 0 0zm0 0l5.832 6.577m-6.047-12.922h8.614m-8.614 2.805h8.614" stroke="#FFE7EE" stroke-width="2" stroke-miterlimit="10" stroke-linecap="round" stroke-linejoin="round"/><path d="M31.394 37.537h-.49" stroke="#FFE7EE" stroke-width="2" stroke-linecap="round"/><path d="M42.23 53.432H27.664c-.873 0-1.571-.698-1.571-1.57 0-.873.698-1.571 1.57-1.571h14.48c.873 0 1.57.698 1.57 1.57.088.873-.61 1.572-1.483 1.572zM33.685 59.666h-6.021c-.873 0-1.571-.698-1.571-1.571s.698-1.571 1.57-1.571h5.935c.873 0 1.571.698 1.571 1.57.087.874-.61 1.572-1.483 1.572z" fill="#FFBED3"/></svg>